<?xml version="1.0" encoding="UTF-8"?>
<svg width="477px" height="477px" viewBox="0 0 477 477" version="1.1" xmlns="http://www.w3.org/2000/svg" xmlns:xlink="http://www.w3.org/1999/xlink">
    <!-- Generator: Sketch 42 (36781) - http://www.bohemiancoding.com/sketch -->
    <title>Group 3</title>
    <desc>Created with Sketch.</desc>
    <defs></defs>
    <g id="Page-1" stroke="none" stroke-width="1" fill="none" fill-rule="evenodd">
        <g id="Group-3" transform="translate(1.000000, 1.000000)" stroke="#000032">
            <ellipse id="Oval" fill="#000032" cx="237.5" cy="237.5" rx="237.5" ry="237.5"></ellipse>
            <g id="Group-2" transform="translate(72.000000, 95.000000)" stroke-width="3">
                <path d="M0,7.83555896 C1.57915271e-15,42.476364 0.835059121,217.795029 1.109375,224.408206 C4.29052734,234.566598 15.2177734,231.788933 18.0888672,224.408206 C18.0888672,224.408206 16.5117188,87.1983992 16.5117188,83.9726273 C16.634488,84.4521394 17.0528834,88.15367 19.8847656,91.2063836 C44.6585987,117.91209 162.669061,230.05461 167.842773,234.566598 C176.011719,240.399782 181.84375,235.12274 181.84375,227.364149 C181.84375,228.619925 174.265625,32.9441203 173.101562,22.2430657 C171.90543,11.7445593 156.911133,9.73052831 154.574219,22.2430657 C154.574219,22.2430657 163.10498,181.177979 163.10498,183.30127 C161.766602,177.842285 160.225586,176.677246 160.225586,176.677246 C156.232422,172.063477 22.4482815,10.138645 16.5117188,4.90831396 C12.3730469,-0.249585638 2.56835937,-2.9559393 0,7.83555896 Z" id="Path" stroke-linecap="square" fill="#FBFBFB"></path>
                <g id="Group" transform="translate(188.000000, 90.333402)">
                    <path d="M147.953125,114.597909 C149.024791,110.03805 161.41646,107.736421 165.533203,114.597909 C165.533203,114.597909 166.299339,139.536624 152.75,156.846286 C139.200661,174.155948 116.041016,185.252536 81.0410156,183.068942 C52.7316451,180.988723 8.54436701,160.47896 2.413663,111.776225 C2.413663,111.776225 -8.3754106,59.9141761 20.9390092,26.8962085 C59.2303245,-10.7073632 114.02012,-2.2019508 138.760742,14.5275186 C168.508656,33.3789561 168.71875,76.1563601 168.71875,81.6967466 C168.71875,81.6967466 170.41909,98.6748147 157.543646,99.5155823 L39.4384766,100.887301 C39.4384766,100.887301 40.0728205,119.799411 47.2929688,132.301364 C47.2929688,132.301364 60.6699219,162.24863 104.435547,159.570895 C147.953125,152.170505 147.439476,116.783448 147.953125,114.597909 Z" id="Path-2" fill="#FFFCFC"></path>
                    <path d="M39.8886719,72.9192839 C41.2368164,68.4915495 47.4912109,69.1011687 47.4912109,69.1011687 L146.716797,77.2768002 C146.716797,77.2768002 149.689542,27.1451684 97.7011719,22.9810515 C58.0833074,21.9858121 45.8571777,50.1160265 45.8571777,50.1160263 C40.7050781,59.6719695 39.8886719,72.9192839 39.8886719,72.9192839 Z" id="Path-3" fill="#000032"></path>
                </g>
            </g>
        </g>
    </g>
</svg>